<?xml version="1.0" encoding="UTF-8"?>
<!DOCTYPE svg PUBLIC "-//W3C//DTD SVG 1.1//EN" "http://www.w3.org/Graphics/SVG/1.1/DTD/svg11.dtd">
<svg xmlns="http://www.w3.org/2000/svg" version="1.1" width="512px" height="512px" style="shape-rendering:geometricPrecision; text-rendering:geometricPrecision; image-rendering:optimizeQuality; fill-rule:evenodd; clip-rule:evenodd" xmlns:xlink="http://www.w3.org/1999/xlink">
<g><path style="opacity:0.983" fill="#1e81ce" d="M 251.5,15.5 C 254.187,15.3359 256.854,15.5026 259.5,16C 276.167,24.3333 292.833,32.6667 309.5,41C 310.126,41.7504 310.626,42.5838 311,43.5C 311.168,54.1822 311.668,64.8489 312.5,75.5C 338.341,89.5879 364.341,103.421 390.5,117C 391.5,117.667 392.5,117.667 393.5,117C 408.512,108.992 423.845,101.826 439.5,95.5C 457.823,103.16 475.823,111.66 493.5,121C 494.126,121.75 494.626,122.584 495,123.5C 495.167,132.833 495.333,142.167 495.5,151.5C 495.643,161.595 495.143,171.595 494,181.5C 478.911,189.294 463.744,196.961 448.5,204.5C 447.167,233.167 447.167,261.833 448.5,290.5C 463.5,298 478.5,305.5 493.5,313C 494.126,313.75 494.626,314.584 495,315.5C 495.975,334.923 495.641,354.257 494,373.5C 476.234,383.134 458.067,391.801 439.5,399.5C 438.167,399.333 436.833,399.167 435.5,399C 421.062,391.697 406.562,384.531 392,377.5C 365.276,391.445 338.776,405.778 312.5,420.5C 311.972,436.914 311.139,453.248 310,469.5C 292.234,479.134 274.067,487.801 255.5,495.5C 236.933,487.801 218.766,479.134 201,469.5C 199.861,453.248 199.028,436.914 198.5,420.5C 172.224,405.778 145.724,391.445 119,377.5C 104.438,384.531 89.9384,391.697 75.5,399C 72.8333,399.667 70.1667,399.667 67.5,399C 50.5889,390.628 33.7556,382.128 17,373.5C 15.8568,363.595 15.3568,353.595 15.5,343.5C 15.3568,333.405 15.8568,323.405 17,313.5C 32.0889,305.706 47.2555,298.039 62.5,290.5C 63.8333,261.833 63.8333,233.167 62.5,204.5C 47.5,197 32.5,189.5 17.5,182C 16.8742,181.25 16.3742,180.416 16,179.5C 15.0255,160.077 15.3588,140.743 17,121.5C 34.7659,111.866 52.9326,103.199 71.5,95.5C 87.1549,101.826 102.488,108.992 117.5,117C 118.5,117.667 119.5,117.667 120.5,117C 146.659,103.421 172.659,89.5879 198.5,75.5C 199.042,64.0852 199.875,52.7519 201,41.5C 217.973,32.9313 234.806,24.2646 251.5,15.5 Z M 253.5,33.5 C 263.963,37.0636 273.963,41.7303 283.5,47.5C 274.99,52.2551 266.324,56.7551 257.5,61C 256.167,61.6667 254.833,61.6667 253.5,61C 244.676,56.7551 236.01,52.2551 227.5,47.5C 236.228,42.8048 244.895,38.1381 253.5,33.5 Z M 198.5,94.5 C 199.188,97.0201 200.188,99.5201 201.5,102C 216.5,109.5 231.5,117 246.5,124.5C 247.666,139.822 247.833,155.156 247,170.5C 228.584,182.292 210.084,193.958 191.5,205.5C 170.339,194.087 149.339,182.42 128.5,170.5C 127.167,157.833 127.167,145.167 128.5,132.5C 152.215,120.313 175.548,107.647 198.5,94.5 Z M 311.5,94.5 C 335.15,107.138 358.816,119.805 382.5,132.5C 383.833,145.167 383.833,157.833 382.5,170.5C 361.747,182.293 340.914,193.96 320,205.5C 301.165,194.084 282.498,182.417 264,170.5C 263.167,155.156 263.334,139.822 264.5,124.5C 279.5,117 294.5,109.5 309.5,102C 311.113,99.7724 311.78,97.2724 311.5,94.5 Z M 69.5,113.5 C 79.9634,117.064 89.9634,121.73 99.5,127.5C 90.9905,132.255 82.3238,136.755 73.5,141C 72.1667,141.667 70.8333,141.667 69.5,141C 60.6762,136.755 52.0095,132.255 43.5,127.5C 52.2284,122.805 60.8951,118.138 69.5,113.5 Z M 437.5,113.5 C 447.963,117.064 457.963,121.73 467.5,127.5C 458.99,132.255 450.324,136.755 441.5,141C 440.167,141.667 438.833,141.667 437.5,141C 428.676,136.755 420.01,132.255 411.5,127.5C 420.228,122.805 428.895,118.138 437.5,113.5 Z M 117.5,185.5 C 139.548,196.359 161.214,208.025 182.5,220.5C 183.833,238.5 183.833,256.5 182.5,274.5C 161.558,286.555 140.392,298.221 119,309.5C 106.105,303.303 93.2717,296.969 80.5,290.5C 79.1667,261.833 79.1667,233.167 80.5,204.5C 93.051,198.392 105.384,192.059 117.5,185.5 Z M 255.5,185.5 C 271.149,195.474 286.816,205.474 302.5,215.5C 287.074,225.6 271.408,235.266 255.5,244.5C 239.592,235.266 223.926,225.6 208.5,215.5C 224.207,205.44 239.873,195.44 255.5,185.5 Z M 390.5,185.5 C 404.043,191.27 417.376,197.604 430.5,204.5C 431.833,233.167 431.833,261.833 430.5,290.5C 417.728,296.969 404.895,303.303 392,309.5C 370.608,298.221 349.442,286.555 328.5,274.5C 327.167,256.5 327.167,238.5 328.5,220.5C 349.229,208.806 369.896,197.139 390.5,185.5 Z M 190.5,289.5 C 209.529,300.769 228.362,312.435 247,324.5C 247.833,345.175 247.666,365.841 246.5,386.5C 233.728,392.969 220.895,399.303 208,405.5C 181.276,391.555 154.776,377.222 128.5,362.5C 127.167,349.833 127.167,337.167 128.5,324.5C 149.229,312.806 169.896,301.139 190.5,289.5 Z M 319.5,289.5 C 340.634,300.901 361.634,312.568 382.5,324.5C 383.833,337.167 383.833,349.833 382.5,362.5C 356.224,377.222 329.724,391.555 303,405.5C 290.105,399.303 277.272,392.969 264.5,386.5C 263.334,365.841 263.167,345.175 264,324.5C 282.48,312.684 300.98,301.017 319.5,289.5 Z M 69.5,305.5 C 79.9634,309.064 89.9634,313.73 99.5,319.5C 90.9905,324.255 82.3238,328.755 73.5,333C 72.1667,333.667 70.8333,333.667 69.5,333C 60.6762,328.755 52.0095,324.255 43.5,319.5C 52.2284,314.805 60.8951,310.138 69.5,305.5 Z M 437.5,305.5 C 447.963,309.064 457.963,313.73 467.5,319.5C 458.99,324.255 450.324,328.755 441.5,333C 440.167,333.667 438.833,333.667 437.5,333C 428.676,328.755 420.01,324.255 411.5,319.5C 420.228,314.805 428.895,310.138 437.5,305.5 Z M 253.5,401.5 C 263.963,405.064 273.963,409.73 283.5,415.5C 274.99,420.255 266.324,424.755 257.5,429C 256.167,429.667 254.833,429.667 253.5,429C 244.676,424.755 236.01,420.255 227.5,415.5C 236.228,410.805 244.895,406.138 253.5,401.5 Z"/></g>
<g><path style="opacity:1" fill="#9ac8fe" d="M 215.5,60.5 C 226.051,65.6924 236.551,71.0258 247,76.5C 247.667,86.5 247.667,96.5 247,106.5C 236.667,101.167 226.333,95.8333 216,90.5C 215.5,80.5056 215.334,70.5056 215.5,60.5 Z"/></g>
<g><path style="opacity:1" fill="#9ac8fe" d="M 294.5,60.5 C 295.658,70.3247 295.825,80.3247 295,90.5C 284.667,95.8333 274.333,101.167 264,106.5C 263.333,96.5 263.333,86.5 264,76.5C 274.307,71.2649 284.474,65.9316 294.5,60.5 Z"/></g>
<g><path style="opacity:1" fill="#9ac8fe" d="M 31.5,140.5 C 42.0513,145.692 52.5513,151.026 63,156.5C 63.6667,166.5 63.6667,176.5 63,186.5C 52.6667,181.167 42.3333,175.833 32,170.5C 31.5002,160.506 31.3335,150.506 31.5,140.5 Z"/></g>
<g><path style="opacity:1" fill="#9ac8fe" d="M 110.5,140.5 C 111.658,150.325 111.825,160.325 111,170.5C 100.667,175.833 90.3333,181.167 80,186.5C 79.3333,176.5 79.3333,166.5 80,156.5C 90.3069,151.265 100.474,145.932 110.5,140.5 Z"/></g>
<g><path style="opacity:1" fill="#9ac8fe" d="M 399.5,140.5 C 410.051,145.692 420.551,151.026 431,156.5C 431.667,166.5 431.667,176.5 431,186.5C 420.667,181.167 410.333,175.833 400,170.5C 399.5,160.506 399.334,150.506 399.5,140.5 Z"/></g>
<g><path style="opacity:1" fill="#9ac8fe" d="M 478.5,140.5 C 479.658,150.325 479.825,160.325 479,170.5C 468.667,175.833 458.333,181.167 448,186.5C 447.333,176.5 447.333,166.5 448,156.5C 458.307,151.265 468.474,145.932 478.5,140.5 Z"/></g>
<g><path style="opacity:1" fill="#9ac8fe" d="M 199.5,230.5 C 215.43,239.914 231.264,249.581 247,259.5C 247.833,274.511 247.666,289.511 246.5,304.5C 231.084,294.708 215.584,285.041 200,275.5C 199.5,260.504 199.333,245.504 199.5,230.5 Z"/></g>
<g><path style="opacity:1" fill="#9ac8fe" d="M 309.5,230.5 C 310.831,237.636 311.497,245.136 311.5,253C 311.333,260.5 311.167,268 311,275.5C 295.416,285.041 279.916,294.708 264.5,304.5C 263.334,289.511 263.167,274.511 264,259.5C 279.485,250.183 294.652,240.517 309.5,230.5 Z"/></g>
<g><path style="opacity:1" fill="#9ac8fe" d="M 31.5,332.5 C 42.0513,337.692 52.5513,343.026 63,348.5C 63.6667,358.5 63.6667,368.5 63,378.5C 52.6667,373.167 42.3333,367.833 32,362.5C 31.5002,352.506 31.3335,342.506 31.5,332.5 Z"/></g>
<g><path style="opacity:1" fill="#9ac8fe" d="M 110.5,332.5 C 111.658,342.325 111.825,352.325 111,362.5C 100.667,367.833 90.3333,373.167 80,378.5C 79.3333,368.5 79.3333,358.5 80,348.5C 90.3069,343.265 100.474,337.932 110.5,332.5 Z"/></g>
<g><path style="opacity:1" fill="#9ac8fe" d="M 399.5,332.5 C 410.051,337.692 420.551,343.026 431,348.5C 431.667,358.5 431.667,368.5 431,378.5C 420.667,373.167 410.333,367.833 400,362.5C 399.5,352.506 399.334,342.506 399.5,332.5 Z"/></g>
<g><path style="opacity:1" fill="#9ac8fe" d="M 478.5,332.5 C 479.658,342.325 479.825,352.325 479,362.5C 468.667,367.833 458.333,373.167 448,378.5C 447.333,368.5 447.333,358.5 448,348.5C 458.307,343.265 468.474,337.932 478.5,332.5 Z"/></g>
<g><path style="opacity:1" fill="#9ac8fe" d="M 215.5,428.5 C 226.051,433.692 236.551,439.026 247,444.5C 247.667,454.5 247.667,464.5 247,474.5C 236.667,469.167 226.333,463.833 216,458.5C 215.5,448.506 215.334,438.506 215.5,428.5 Z"/></g>
<g><path style="opacity:1" fill="#9ac8fe" d="M 294.5,428.5 C 295.658,438.325 295.825,448.325 295,458.5C 284.667,463.833 274.333,469.167 264,474.5C 263.333,464.5 263.333,454.5 264,444.5C 274.307,439.265 284.474,433.932 294.5,428.5 Z"/></g>
</svg>
